HIERARCHY
ROOT Hips
{
	OFFSET 0.000000 0.000000 0.000000
	CHANNELS 6 Xposition Yposition Zposition Zrotation Yrotation Xrotation 
	JOINT LHipJoint
	{
		OFFSET 0.000000 0.000000 0.000000
		CHANNELS 3 Zrotation Yrotation Xrotation
		JOINT LeftUpLeg
		{
			OFFSET 1.363060 -1.794630 0.839290
			CHANNELS 3 Zrotation Yrotation Xrotation
			JOINT LeftLeg
			{
				OFFSET 2.448110 -6.726130 0.000000
				CHANNELS 3 Zrotation Yrotation Xrotation
				JOINT LeftFoot
				{
					OFFSET 2.562200 -7.039590 0.000000
					CHANNELS 3 Zrotation Yrotation Xrotation
					JOINT LeftToeBase
					{
						OFFSET 0.157640 -0.433110 2.322550
						CHANNELS 3 Zrotation Yrotation Xrotation
						End Site
						{
							OFFSET 0.000000 0.000000 0.000000
						}
					}
				}
			}
		}
	}
	JOINT RHipJoint
	{
		OFFSET 0.000000 0.000000 0.000000
		CHANNELS 3 Zrotation Yrotation Xrotation
		JOINT RightUpLeg
		{
			OFFSET -1.305520 -1.794630 0.839290
			CHANNELS 3 Zrotation Yrotation Xrotation
			JOINT RightLeg
			{
				OFFSET -2.542530 -6.985550 0.000000
				CHANNELS 3 Zrotation Yrotation Xrotation
				JOINT RightFoot
				{
					OFFSET -2.568260 -7.056230 0.000000
					CHANNELS 3 Zrotation Yrotation Xrotation
					JOINT RightToeBase
					{
						OFFSET -0.164730 -0.452590 2.363150
						CHANNELS 3 Zrotation Yrotation Xrotation
						End Site
						{
							OFFSET 0.000000 0.000000 0.000000
						}
					}
				}
			}
		}
	}
	JOINT LowerBack
	{
		OFFSET 0.000000 0.000000 0.000000
		CHANNELS 3 Zrotation Yrotation Xrotation
		JOINT Spine
		{
			OFFSET 0.028270 2.035590 -0.193380
			CHANNELS 3 Zrotation Yrotation Xrotation
			JOINT Spine1
			{
				OFFSET 0.056720 2.048850 -0.042750
				CHANNELS 3 Zrotation Yrotation Xrotation
				JOINT Neck
				{
					OFFSET 0.000000 0.000000 0.000000
					CHANNELS 3 Zrotation Yrotation Xrotation
					JOINT Neck1
					{
						OFFSET -0.054170 1.746240 0.172020
						CHANNELS 3 Zrotation Yrotation Xrotation
						JOINT Head
						{
							OFFSET 0.104070 1.761360 -0.123970
							CHANNELS 3 Zrotation Yrotation Xrotation
							End Site
							{
								OFFSET 0.000000 0.000000 0.000000
							}
						}
					}
				}
				JOINT LeftShoulder
				{
					OFFSET 0.000000 0.000000 0.000000
					CHANNELS 3 Zrotation Yrotation Xrotation
					JOINT LeftArm
					{
						OFFSET 3.362410 1.200890 -0.311210
						CHANNELS 3 Zrotation Yrotation Xrotation
						JOINT LeftForeArm
						{
							OFFSET 4.983000 -0.000000 -0.000000
							CHANNELS 3 Zrotation Yrotation Xrotation
							JOINT LeftHand
							{
								OFFSET 3.483560 -0.000000 -0.000000
								CHANNELS 3 Zrotation Yrotation Xrotation
								JOINT LeftFingerBase
								{
									OFFSET 0.000000 0.000000 0.000000
									CHANNELS 3 Zrotation Yrotation Xrotation
									JOINT LeftHandIndex1
									{
										OFFSET 0.715260 -0.000000 -0.000000
										CHANNELS 3 Zrotation Yrotation Xrotation
										End Site
										{
											OFFSET 0.000000 0.000000 0.000000
										}
									}
								}
								JOINT LThumb
								{
									OFFSET 0.000000 0.000000 0.000000
									CHANNELS 3 Zrotation Yrotation Xrotation
									End Site
									{
										OFFSET 0.000000 0.000000 0.000000
									}
								}
							}
						}
					}
				}
				JOINT RightShoulder
				{
					OFFSET 0.000000 0.000000 0.000000
					CHANNELS 3 Zrotation Yrotation Xrotation
					JOINT RightArm
					{
						OFFSET -3.136600 1.374050 -0.404650
						CHANNELS 3 Zrotation Yrotation Xrotation
						JOINT RightForeArm
						{
							OFFSET -5.241900 -0.000000 -0.000000
							CHANNELS 3 Zrotation Yrotation Xrotation
							JOINT RightHand
							{
								OFFSET -3.444170 -0.000000 -0.000000
								CHANNELS 3 Zrotation Yrotation Xrotation
								JOINT RightFingerBase
								{
									OFFSET 0.000000 0.000000 0.000000
									CHANNELS 3 Zrotation Yrotation Xrotation
									JOINT RightHandIndex1
									{
										OFFSET -0.622530 -0.000000 -0.000000
										CHANNELS 3 Zrotation Yrotation Xrotation
										End Site
										{
											OFFSET 0.000000 0.000000 0.000000
										}
									}
								}
								JOINT RThumb
								{
									OFFSET 0.000000 0.000000 0.000000
									CHANNELS 3 Zrotation Yrotation Xrotation
									End Site
									{
										OFFSET 0.000000 0.000000 0.000000
									}
								}
							}
						}
					}
				}
			}
		}
	}
}
MOTION
Frames: 4
Frame Time: 0.008333
-17.000726 17.652823 5.323991 -130.547411 -77.171445 137.628331 -1.072650 -1.739536 -1.919602 2.368121 -11.895435 -25.281812 0.178090 6.308172 16.022138 -1.268727 9.627926 8.468735 0.304800 -3.549500 -9.812600 0.945712 1.219517 -0.994903 31.955562 0.718604 -1.039002 -2.227492 -10.642977 29.643968 1.851008 -12.711416 -12.794616 -0.028700 1.094100 -3.007800 5.523549 -0.706047 3.721510 1.306979 -0.557028 -6.250926 1.242500 -0.635983 -4.870511 -12.490971 -13.913309 -10.335523 12.421826 -17.209287 4.401081 4.473700 -8.175200 7.523500 4.974474 2.087533 0.131825 -73.615928 9.444600 -4.660441 16.785421 -32.723984 -5.172383 0.606918 2.772218 16.295650 8.475798 30.539735 4.061500 -7.125000 0.000000 0.000000 -23.478700 56.330000 -6.785400 -3.810905 -1.661222 -0.482596 2.766145 41.506928 -51.822244 -84.629022 58.969735 -60.091810 -1.384166 -0.283143 34.905698 -50.588468 -55.734949 44.215900 7.125000 0.000000 0.000000 171.946300 83.654000 172.882500 
-17.151349 17.651423 5.335793 -132.624536 -77.001925 139.662683 -1.093225 -1.709619 -1.888397 2.043313 -11.657904 -25.047466 0.174146 6.322162 16.044436 -1.276639 9.714137 8.613940 0.283600 -3.425000 -9.464200 0.939777 1.235491 -1.012681 31.522677 0.597484 -1.107469 -2.386358 -10.896442 30.471828 1.912460 -12.890020 -12.329258 -0.033000 1.172600 -3.223800 5.385911 -0.579455 3.582433 1.243291 -0.399301 -6.251302 1.235463 -0.556121 -4.797879 -12.633438 -13.971855 -10.209338 12.453982 -17.281057 4.340230 4.516500 -8.220500 7.502300 4.955833 2.133977 0.122190 -73.770871 9.342967 -4.615472 16.780848 -32.728187 -5.166730 0.610359 2.768353 16.295856 8.519733 30.419145 4.064200 -7.125000 0.000000 0.000000 -23.359100 56.230500 -6.690700 -3.778055 -1.712721 -0.420297 4.428003 41.821491 -48.676748 -81.408251 58.509547 -57.061359 -1.259128 -0.249872 34.395827 -45.088205 -55.858797 38.825200 7.125000 0.000000 0.000000 148.633100 85.299500 151.165700 
-17.301771 17.651123 5.347495 -134.596755 -76.840298 141.584135 -1.115270 -1.680757 -1.855597 1.686555 -11.402364 -24.805607 0.174376 6.352215 16.114609 -1.278390 9.764901 8.733684 0.263200 -3.300400 -9.116200 0.932135 1.250870 -1.032219 31.076843 0.468940 -1.230998 -2.561392 -11.166628 31.361090 1.983554 -13.112447 -11.828019 -0.035400 1.215200 -3.341200 5.235707 -0.461910 3.450623 1.180765 -0.252934 -6.249119 1.237058 -0.480660 -4.729051 -12.775951 -14.028084 -10.079236 12.484875 -17.349192 4.274421 4.559000 -8.264000 7.479100 4.939162 2.175956 0.117938 -73.942095 9.228225 -4.525934 16.781525 -32.742944 -5.163440 0.613724 2.764454 16.301906 8.564801 30.292417 4.066600 -7.125000 0.000000 0.000000 -23.234900 56.125700 -6.592100 -3.744866 -1.757984 -0.379746 6.248736 42.057577 -45.431199 -78.430697 58.079575 -54.222631 -1.143102 -0.215287 33.822656 -39.464535 -55.476322 33.340300 7.125000 0.000000 0.000000 110.318400 85.761300 114.353600 
-17.451993 17.651923 5.358896 -136.460355 -76.690621 143.389601 -1.138608 -1.653083 -1.821288 1.300131 -11.132991 -24.556758 0.178300 6.396347 16.226599 -1.274061 9.780748 8.830488 0.243600 -3.176000 -8.769100 0.923079 1.265596 -1.053200 30.620244 0.331791 -1.410558 -2.752635 -11.451662 32.307240 2.064027 -13.378888 -11.290449 -0.036000 1.225100 -3.368400 5.072590 -0.354819 3.327451 1.120089 -0.119756 -6.245665 1.248928 -0.410833 -4.668133 -12.919435 -14.081789 -9.942804 12.514241 -17.413456 4.204825 4.601200 -8.305700 7.453900 4.924412 2.213402 0.118649 -74.130326 9.107408 -4.390740 16.789543 -32.770273 -5.163327 0.616899 2.760320 16.312584 8.612412 30.156138 4.068900 -7.125000 0.000000 0.000000 -23.101900 56.012500 -6.486800 -3.711397 -1.797332 -0.358956 8.225965 42.204701 -42.095206 -75.707771 57.692678 -51.611658 -1.038887 -0.181764 33.207056 -34.154795 -54.617848 28.202500 7.125000 0.000000 0.000000 82.769600 -84.548100 -77.304500 
